<svg width="49" height="49" viewBox="0 0 49 49" fill="none" xmlns="http://www.w3.org/2000/svg">
<g clip-path="url(#clip0_12_3)">
<path d="M10.2083 8.16666H14.2916V40.8333H10.2083V8.16666ZM31.5641 26.5417H30.2779L28.2362 24.5L30.2779 22.4583H31.5641C32.9775 22.4583 34.359 22.0392 35.5342 21.254C36.7093 20.4688 37.6252 19.3528 38.166 18.0471C38.7069 16.7414 38.8484 15.3046 38.5727 13.9184C38.297 12.5323 37.6164 11.259 36.617 10.2596C35.6177 9.26026 34.3444 8.57969 32.9582 8.30396C31.5721 8.02824 30.1353 8.16975 28.8296 8.7106C27.5238 9.25146 26.4078 10.1674 25.6226 11.3425C24.8374 12.5176 24.4183 13.8992 24.4183 15.3125H28.5016C28.5016 14.7068 28.6813 14.1147 29.0178 13.6111C29.3543 13.1074 29.8326 12.7149 30.3922 12.4831C30.9518 12.2513 31.5675 12.1907 32.1616 12.3088C32.7557 12.427 33.3014 12.7187 33.7297 13.147C34.158 13.5753 34.4496 14.121 34.5678 14.715C34.686 15.3091 34.6253 15.9249 34.3935 16.4845C34.1617 17.0441 33.7692 17.5224 33.2656 17.8589C32.762 18.1954 32.1699 18.375 31.5641 18.375H28.5833L24.5 22.4583H22.4583V8.16666H18.375V40.8333H22.4583V26.5417H24.5L28.5833 30.625H31.5641C32.1699 30.625 32.762 30.8046 33.2656 31.1411C33.7692 31.4776 34.1617 31.9559 34.3935 32.5155C34.6253 33.0751 34.686 33.6909 34.5678 34.285C34.4496 34.879 34.158 35.4247 33.7297 35.853C33.3014 36.2813 32.7557 36.573 32.1616 36.6911C31.5675 36.8093 30.9518 36.7487 30.3922 36.5169C29.8326 36.2851 29.3543 35.8926 29.0178 35.3889C28.6813 34.8853 28.5016 34.2932 28.5016 33.6875H24.4183C24.4183 35.1008 24.8374 36.4824 25.6226 37.6575C26.4078 38.8326 27.5238 39.7485 28.8296 40.2894C30.1353 40.8302 31.5721 40.9717 32.9582 40.696C34.3444 40.4203 35.6177 39.7397 36.617 38.7404C37.6164 37.741 38.297 36.4677 38.5727 35.0816C38.8484 33.6954 38.7069 32.2586 38.166 30.9529C37.6252 29.6472 36.7093 28.5311 35.5342 27.7459C34.359 26.9608 32.9775 26.5417 31.5641 26.5417Z" fill="white"/>
</g>
<defs>
<clipPath id="clip0_12_3">
<rect width="49" height="49" fill="white"/>
</clipPath>
</defs>
</svg>
